<svg width="165" height="165" viewBox="0 0 165 165" fill="none" xmlns="http://www.w3.org/2000/svg">
<path d="M18.3333 165C13.2917 165 8.97569 163.205 5.38542 159.615C1.79514 156.024 0 151.708 0 146.667V18.3333C0 13.2917 1.79514 8.97569 5.38542 5.38542C8.97569 1.79514 13.2917 0 18.3333 0H146.667C151.708 0 156.024 1.79514 159.615 5.38542C163.205 8.97569 165 13.2917 165 18.3333V146.667C165 151.708 163.205 156.024 159.615 159.615C156.024 163.205 151.708 165 146.667 165H18.3333ZM18.3333 146.667H146.667V18.3333H18.3333V146.667Z" fill="#1F1F1F"/>
<path d="M36 130V86.3401H51.0305V104.353L104.353 51.0305H86.3401V36H130V79.6599H114.97V61.6472L61.6472 114.97H79.6599V130H36Z" fill="#1F1F1F"/>
</svg>
